<?xml version="1.0" encoding="UTF-8" standalone="no"?>
<!DOCTYPE svg PUBLIC "-//W3C//DTD SVG 1.1//EN"
 "http://www.w3.org/Graphics/SVG/1.1/DTD/svg11.dtd">
<!-- Generated by graphviz version 2.40.1 (20161225.0304)
 -->
<!-- Title: G Pages: 1 -->
<svg width="1004pt" height="821pt"
 viewBox="0.00 0.00 1004.00 821.00" xmlns="http://www.w3.org/2000/svg" xmlns:xlink="http://www.w3.org/1999/xlink">
<g id="graph0" class="graph" transform="scale(1 1) rotate(0) translate(4 817)">
<title>G</title>
<polygon fill="#ffffff" stroke="transparent" points="-4,4 -4,-817 1000,-817 1000,4 -4,4"/>
<!-- A0 -->
<g id="node1" class="node">
<title>A0</title>
<polygon fill="none" stroke="#000000" points="0,-370 0,-402 374,-402 374,-370 0,-370"/>
<text text-anchor="start" x="161.446" y="-383" font-family="Helvetica,sans-Serif" font-size="10.00" fill="#000000">Inmobiliaria</text>
<polygon fill="none" stroke="#000000" points="0,-86 0,-370 374,-370 374,-86 0,-86"/>
<text text-anchor="start" x="63.6535" y="-351" font-family="Helvetica,sans-Serif" font-size="10.00" fill="#000000">&#45;arbolInmueblesPorPrecio:BinarySearchTree(Inmueble)</text>
<text text-anchor="start" x="59.7645" y="-339" font-family="Helvetica,sans-Serif" font-size="10.00" fill="#000000">&#45;arbolClientesPorPresupuesto:BinarySearchTree(Cliente)</text>
<text text-anchor="start" x="87.8285" y="-327" font-family="Helvetica,sans-Serif" font-size="10.00" fill="#000000">&#45;usuariosSistema:HashTable(String,Usuario)</text>
<text text-anchor="start" x="75.042" y="-315" font-family="Helvetica,sans-Serif" font-size="10.00" fill="#000000">&#45;inmueblesPorCodigo:HashTable(String,Inmueble)</text>
<text text-anchor="start" x="97.5485" y="-303" font-family="Helvetica,sans-Serif" font-size="10.00" fill="#000000">&#45;clientesPorId:HashTable(String,Cliente)</text>
<text text-anchor="start" x="94.2115" y="-291" font-family="Helvetica,sans-Serif" font-size="10.00" fill="#000000">&#45;asesoresPorId:HashTable(String,Asesor)</text>
<text text-anchor="start" x="9.754" y="-279" font-family="Helvetica,sans-Serif" font-size="10.00" fill="#000000">&#45;inmueblesAgrupadosPorCiudad:HashTable(String,LinkedSimpleList(Inmueble))</text>
<text text-anchor="start" x="15.868" y="-267" font-family="Helvetica,sans-Serif" font-size="10.00" fill="#000000">&#45;inmueblesAgrupadosPorTipo:HashTable(String,LinkedSimpleList(Inmueble))</text>
<text text-anchor="start" x="10.0285" y="-255" font-family="Helvetica,sans-Serif" font-size="10.00" fill="#000000">&#45;inmueblesAgrupadosPorEstado:HashTable(String,LinkedSimpleList(Inmueble))</text>
<text text-anchor="start" x="73.097" y="-243" font-family="Helvetica,sans-Serif" font-size="10.00" fill="#000000">&#45;contadorCambiosPrecio:HashTable(String,Integer)</text>
<text text-anchor="start" x="117.549" y="-231" font-family="Helvetica,sans-Serif" font-size="10.00" fill="#000000">&#45;grafoRelaciones:Graph(String)</text>
<text text-anchor="start" x="80.035" y="-219" font-family="Helvetica,sans-Serif" font-size="10.00" fill="#000000">&#45;catalogoInmuebles:DoublyLinkedList(Inmueble)</text>
<text text-anchor="start" x="110.3305" y="-207" font-family="Helvetica,sans-Serif" font-size="10.00" fill="#000000">&#45;clientes:LinkedSimpleList(Cliente)</text>
<text text-anchor="start" x="106.9935" y="-195" font-family="Helvetica,sans-Serif" font-size="10.00" fill="#000000">&#45;asesores:LinkedSimpleList(Asesor)</text>
<text text-anchor="start" x="67.8165" y="-183" font-family="Helvetica,sans-Serif" font-size="10.00" fill="#000000">&#45;operacionesRealizadas:LinkedSimpleList(Operacion)</text>
<text text-anchor="start" x="78.9415" y="-171" font-family="Helvetica,sans-Serif" font-size="10.00" fill="#000000">&#45;historialVisitasGlobales:LinkedSimpleList(Visita)</text>
<text text-anchor="start" x="93.9375" y="-159" font-family="Helvetica,sans-Serif" font-size="10.00" fill="#000000">&#45;colaTareasAdministrativas:Queue(String)</text>
<text text-anchor="start" x="101.157" y="-147" font-family="Helvetica,sans-Serif" font-size="10.00" fill="#000000">&#45;colaSolicitudesClientes:Queue(String)</text>
<text text-anchor="start" x="99.218" y="-135" font-family="Helvetica,sans-Serif" font-size="10.00" fill="#000000">&#45;colaClientesVIP:PriorityQueue(Cliente)</text>
<text text-anchor="start" x="88.934" y="-123" font-family="Helvetica,sans-Serif" font-size="10.00" fill="#000000">&#45;colaVisitasPendientes:PriorityQueue(Visita)</text>
<text text-anchor="start" x="94.2185" y="-111" font-family="Helvetica,sans-Serif" font-size="10.00" fill="#000000">&#45;colaAlertasSistema:PriorityQueue(Alerta)</text>
<text text-anchor="start" x="89.778" y="-99" font-family="Helvetica,sans-Serif" font-size="10.00" fill="#000000">&#45;pilaHistorialCambios:Stack(CambioEstado)</text>
</g>
<!-- A2 -->
<g id="node3" class="node">
<title>A2</title>
<polygon fill="none" stroke="#000000" points="621.5,-346 621.5,-378 770.5,-378 770.5,-346 621.5,-346"/>
<text text-anchor="start" x="680.4435" y="-359" font-family="Helvetica,sans-Serif" font-size="10.00" fill="#000000">Cliente</text>
<polygon fill="none" stroke="#000000" points="621.5,-218 621.5,-346 770.5,-346 770.5,-218 621.5,-218"/>
<text text-anchor="start" x="676" y="-327" font-family="Helvetica,sans-Serif" font-size="10.00" fill="#000000">&#45;id:String</text>
<text text-anchor="start" x="662.942" y="-315" font-family="Helvetica,sans-Serif" font-size="10.00" fill="#000000">&#45;nombre:String</text>
<text text-anchor="start" x="665.7215" y="-303" font-family="Helvetica,sans-Serif" font-size="10.00" fill="#000000">&#45;correo:String</text>
<text text-anchor="start" x="662.103" y="-291" font-family="Helvetica,sans-Serif" font-size="10.00" fill="#000000">&#45;telefono:String</text>
<text text-anchor="start" x="656.2745" y="-279" font-family="Helvetica,sans-Serif" font-size="10.00" fill="#000000">&#45;tipoCliente:String</text>
<text text-anchor="start" x="650.4285" y="-267" font-family="Helvetica,sans-Serif" font-size="10.00" fill="#000000">&#45;presupuesto:double</text>
<text text-anchor="start" x="631.263" y="-255" font-family="Helvetica,sans-Serif" font-size="10.00" fill="#000000">&#45;tipoInmuebleDeseado:String</text>
<text text-anchor="start" x="650.719" y="-243" font-family="Helvetica,sans-Serif" font-size="10.00" fill="#000000">&#45;minHabitaciones:int</text>
<text text-anchor="start" x="642.37" y="-231" font-family="Helvetica,sans-Serif" font-size="10.00" fill="#000000">&#45;estadoBusqueda:String</text>
</g>
<!-- A0&#45;&gt;A2 -->
<g id="edge7" class="edge">
<title>A0&#45;&gt;A2</title>
<path fill="none" stroke="#000000" d="M386.4166,-204.24C446.6867,-199.1903 512.3965,-200.7945 571,-218 584.9205,-222.087 598.7575,-228.2634 611.8705,-235.4086"/>
<polygon fill="none" stroke="#000000" points="386.389,-204.2424 380.7784,-208.7725 374.4389,-205.3359 380.0494,-200.8058 386.389,-204.2424"/>
<polygon fill="#000000" stroke="#000000" points="620.8252,-240.4963 609.9076,-239.4689 616.4779,-238.0263 612.1306,-235.5563 612.1306,-235.5563 612.1306,-235.5563 616.4779,-238.0263 614.3536,-231.6437 620.8252,-240.4963 620.8252,-240.4963"/>
<text text-anchor="middle" x="600.8897" y="-235.8911" font-family="Helvetica,sans-Serif" font-size="10.00" fill="#000000">*</text>
<text text-anchor="middle" x="391.7194" y="-192.2671" font-family="Helvetica,sans-Serif" font-size="10.00" fill="#000000">1</text>
</g>
<!-- A3 -->
<g id="node4" class="node">
<title>A3</title>
<polygon fill="none" stroke="#000000" points="843,-250 843,-282 973,-282 973,-250 843,-250"/>
<text text-anchor="start" x="892.442" y="-263" font-family="Helvetica,sans-Serif" font-size="10.00" fill="#000000">Asesor</text>
<polygon fill="none" stroke="#000000" points="843,-158 843,-250 973,-250 973,-158 843,-158"/>
<text text-anchor="start" x="888" y="-231" font-family="Helvetica,sans-Serif" font-size="10.00" fill="#000000">&#45;id:String</text>
<text text-anchor="start" x="874.942" y="-219" font-family="Helvetica,sans-Serif" font-size="10.00" fill="#000000">&#45;nombre:String</text>
<text text-anchor="start" x="872.992" y="-207" font-family="Helvetica,sans-Serif" font-size="10.00" fill="#000000">&#45;contacto:String</text>
<text text-anchor="start" x="852.711" y="-195" font-family="Helvetica,sans-Serif" font-size="10.00" fill="#000000">&#45;especialidadZona:String</text>
<text text-anchor="start" x="856.605" y="-183" font-family="Helvetica,sans-Serif" font-size="10.00" fill="#000000">&#45;cargaTrabajoActiva:int</text>
<text text-anchor="start" x="866.6135" y="-171" font-family="Helvetica,sans-Serif" font-size="10.00" fill="#000000">&#45;numeroCierres:int</text>
</g>
<!-- A0&#45;&gt;A3 -->
<g id="edge8" class="edge">
<title>A0&#45;&gt;A3</title>
<path fill="none" stroke="#000000" d="M386.3551,-202.9209C399.0616,-201.0423 411.6889,-199.3732 424,-198 576.853,-180.9512 616.9689,-176.6317 770,-192 790.59,-194.0678 812.6517,-197.8295 832.9607,-201.9388"/>
<polygon fill="none" stroke="#000000" points="386.0187,-202.9722 380.6912,-207.832 374.1562,-204.7834 379.4837,-199.9236 386.0187,-202.9722"/>
<polygon fill="#000000" stroke="#000000" points="842.7756,-203.9781 832.0692,-206.3496 837.8801,-202.9609 832.9847,-201.9437 832.9847,-201.9437 832.9847,-201.9437 837.8801,-202.9609 833.9002,-197.5378 842.7756,-203.9781 842.7756,-203.9781"/>
<text text-anchor="middle" x="823.309" y="-205.5663" font-family="Helvetica,sans-Serif" font-size="10.00" fill="#000000">*</text>
<text text-anchor="middle" x="390.799" y="-190.6922" font-family="Helvetica,sans-Serif" font-size="10.00" fill="#000000">1</text>
</g>
<!-- A4 -->
<g id="node5" class="node">
<title>A4</title>
<polygon fill="none" stroke="#000000" points="634.5,-586 634.5,-630 756.5,-630 756.5,-586 634.5,-586"/>
<text text-anchor="start" x="666.04" y="-611" font-family="Helvetica,sans-Serif" font-size="10.00" fill="#000000">&lt;&lt;abstract&gt;&gt;</text>
<text text-anchor="start" x="674.939" y="-599" font-family="Helvetica,sans-Serif" font-size="10.00" fill="#000000">Inmueble</text>
<polygon fill="none" stroke="#000000" points="634.5,-434 634.5,-586 756.5,-586 756.5,-434 634.5,-434"/>
<text text-anchor="start" x="664.6615" y="-567" font-family="Helvetica,sans-Serif" font-size="10.00" fill="#000000">&#45;codigo:String</text>
<text text-anchor="start" x="659.3875" y="-555" font-family="Helvetica,sans-Serif" font-size="10.00" fill="#000000">&#45;direccion:String</text>
<text text-anchor="start" x="664.6615" y="-543" font-family="Helvetica,sans-Serif" font-size="10.00" fill="#000000">&#45;ciudad:String</text>
<text text-anchor="start" x="655.219" y="-531" font-family="Helvetica,sans-Serif" font-size="10.00" fill="#000000">&#45;barrioZona:String</text>
<text text-anchor="start" x="660.7735" y="-519" font-family="Helvetica,sans-Serif" font-size="10.00" fill="#000000">&#45;finalidad:String</text>
<text text-anchor="start" x="663.8265" y="-507" font-family="Helvetica,sans-Serif" font-size="10.00" fill="#000000">&#45;precio:double</text>
<text text-anchor="start" x="667.436" y="-495" font-family="Helvetica,sans-Serif" font-size="10.00" fill="#000000">&#45;area:double</text>
<text text-anchor="start" x="659.1025" y="-483" font-family="Helvetica,sans-Serif" font-size="10.00" fill="#000000">&#45;habitaciones:int</text>
<text text-anchor="start" x="671.885" y="-471" font-family="Helvetica,sans-Serif" font-size="10.00" fill="#000000">&#45;baños:int</text>
<text text-anchor="start" x="664.3815" y="-459" font-family="Helvetica,sans-Serif" font-size="10.00" fill="#000000">&#45;estado:String</text>
<text text-anchor="start" x="644.376" y="-447" font-family="Helvetica,sans-Serif" font-size="10.00" fill="#000000">&#45;disponibilidad:boolean</text>
</g>
<!-- A0&#45;&gt;A4 -->
<g id="edge9" class="edge">
<title>A0&#45;&gt;A4</title>
<path fill="none" stroke="#000000" d="M373.9079,-411.8568C400.5011,-451.4315 388.4815,-478.2589 424,-502 482.8575,-541.3413 565.3971,-545.0008 623.9828,-541.2155"/>
<polygon fill="none" stroke="#000000" points="373.8331,-411.7551 367.0559,-409.2915 366.7232,-402.0881 373.5005,-404.5516 373.8331,-411.7551"/>
<polygon fill="#000000" stroke="#000000" points="634.2662,-540.4593 624.6232,-545.6807 629.2797,-540.8261 624.2931,-541.1928 624.2931,-541.1928 624.2931,-541.1928 629.2797,-540.8261 623.9631,-536.7049 634.2662,-540.4593 634.2662,-540.4593"/>
<text text-anchor="middle" x="616.8087" y="-547.2183" font-family="Helvetica,sans-Serif" font-size="10.00" fill="#000000">*</text>
<text text-anchor="middle" x="384.2718" y="-408.6822" font-family="Helvetica,sans-Serif" font-size="10.00" fill="#000000">1</text>
</g>
<!-- A11 -->
<g id="node12" class="node">
<title>A11</title>
<polygon fill="none" stroke="#000000" points="439.5,-319 439.5,-351 555.5,-351 555.5,-319 439.5,-319"/>
<text text-anchor="start" x="485.2775" y="-332" font-family="Helvetica,sans-Serif" font-size="10.00" fill="#000000">Visita</text>
<polygon fill="none" stroke="#000000" points="439.5,-227 439.5,-319 555.5,-319 555.5,-227 439.5,-227"/>
<text text-anchor="start" x="465.2775" y="-300" font-family="Helvetica,sans-Serif" font-size="10.00" fill="#000000">&#45;idVisita:String</text>
<text text-anchor="start" x="459.712" y="-288" font-family="Helvetica,sans-Serif" font-size="10.00" fill="#000000">&#45;fecha:LocalDate</text>
<text text-anchor="start" x="450.829" y="-276" font-family="Helvetica,sans-Serif" font-size="10.00" fill="#000000">&#45;hora:LocalDateTime</text>
<text text-anchor="start" x="454.159" y="-264" font-family="Helvetica,sans-Serif" font-size="10.00" fill="#000000">&#45;estadoVisita:String</text>
<text text-anchor="start" x="449.1585" y="-252" font-family="Helvetica,sans-Serif" font-size="10.00" fill="#000000">&#45;observaciones:String</text>
<text text-anchor="start" x="458.888" y="-240" font-family="Helvetica,sans-Serif" font-size="10.00" fill="#000000">&#45;nivelUrgencia:int</text>
</g>
<!-- A0&#45;&gt;A11 -->
<g id="edge11" class="edge">
<title>A0&#45;&gt;A11</title>
<path fill="none" stroke="#000000" d="M386.3195,-272.8869C401.5108,-275.0885 416.0884,-277.2012 429.4012,-279.1306"/>
<polygon fill="none" stroke="#000000" points="386.2121,-272.8714 379.7004,-275.9694 374.3362,-271.1502 380.8479,-268.0522 386.2121,-272.8714"/>
<polygon fill="#000000" stroke="#000000" points="439.3244,-280.5687 428.7823,-283.5878 434.3761,-279.8516 429.4278,-279.1344 429.4278,-279.1344 429.4278,-279.1344 434.3761,-279.8516 430.0732,-274.6809 439.3244,-280.5687 439.3244,-280.5687"/>
<text text-anchor="middle" x="420.1733" y="-283.3339" font-family="Helvetica,sans-Serif" font-size="10.00" fill="#000000">*</text>
<text text-anchor="middle" x="393.4873" y="-262.385" font-family="Helvetica,sans-Serif" font-size="10.00" fill="#000000">1</text>
</g>
<!-- A12 -->
<g id="node13" class="node">
<title>A12</title>
<polygon fill="none" stroke="#000000" points="437.5,-461 437.5,-493 557.5,-493 557.5,-461 437.5,-461"/>
<text text-anchor="start" x="474.439" y="-474" font-family="Helvetica,sans-Serif" font-size="10.00" fill="#000000">Operacion</text>
<polygon fill="none" stroke="#000000" points="437.5,-369 437.5,-461 557.5,-461 557.5,-369 437.5,-369"/>
<text text-anchor="start" x="477.5" y="-442" font-family="Helvetica,sans-Serif" font-size="10.00" fill="#000000">&#45;id:String</text>
<text text-anchor="start" x="459.712" y="-430" font-family="Helvetica,sans-Serif" font-size="10.00" fill="#000000">&#45;fecha:LocalDate</text>
<text text-anchor="start" x="450.27" y="-418" font-family="Helvetica,sans-Serif" font-size="10.00" fill="#000000">&#45;tipoOperacion:String</text>
<text text-anchor="start" x="447.2095" y="-406" font-family="Helvetica,sans-Serif" font-size="10.00" fill="#000000">&#45;valorAcordado:double</text>
<text text-anchor="start" x="459.717" y="-394" font-family="Helvetica,sans-Serif" font-size="10.00" fill="#000000">&#45;comision:double</text>
<text text-anchor="start" x="448.044" y="-382" font-family="Helvetica,sans-Serif" font-size="10.00" fill="#000000">&#45;estadoProceso:String</text>
</g>
<!-- A0&#45;&gt;A12 -->
<g id="edge10" class="edge">
<title>A0&#45;&gt;A12</title>
<path fill="none" stroke="#000000" d="M384.6232,-363.0194C400.1509,-372.3711 415.0663,-381.3539 428.6802,-389.553"/>
<polygon fill="none" stroke="#000000" points="384.6159,-363.0151 377.4124,-363.3461 374.3362,-356.8241 381.5397,-356.493 384.6159,-363.0151"/>
<polygon fill="#000000" stroke="#000000" points="437.432,-394.8238 426.5439,-393.5194 433.1487,-392.2442 428.8655,-389.6646 428.8655,-389.6646 428.8655,-389.6646 433.1487,-392.2442 431.1872,-385.8097 437.432,-394.8238 437.432,-394.8238"/>
<text text-anchor="middle" x="417.5437" y="-389.7128" font-family="Helvetica,sans-Serif" font-size="10.00" fill="#000000">*</text>
<text text-anchor="middle" x="394.2245" y="-355.935" font-family="Helvetica,sans-Serif" font-size="10.00" fill="#000000">1</text>
</g>
<!-- A13 -->
<g id="node14" class="node">
<title>A13</title>
<polygon fill="none" stroke="#000000" points="424.5,-92 424.5,-124 571.5,-124 571.5,-92 424.5,-92"/>
<text text-anchor="start" x="484.943" y="-105" font-family="Helvetica,sans-Serif" font-size="10.00" fill="#000000">Alerta</text>
<polygon fill="none" stroke="#000000" points="424.5,0 424.5,-92 571.5,-92 571.5,0 424.5,0"/>
<text text-anchor="start" x="464.943" y="-73" font-family="Helvetica,sans-Serif" font-size="10.00" fill="#000000">&#45;idAlerta:String</text>
<text text-anchor="start" x="462.997" y="-61" font-family="Helvetica,sans-Serif" font-size="10.00" fill="#000000">&#45;mensaje:String</text>
<text text-anchor="start" x="460.774" y="-49" font-family="Helvetica,sans-Serif" font-size="10.00" fill="#000000">&#45;tipoAlerta:String</text>
<text text-anchor="start" x="459.389" y="-37" font-family="Helvetica,sans-Serif" font-size="10.00" fill="#000000">&#45;nivelPrioridad:int</text>
<text text-anchor="start" x="434.3715" y="-25" font-family="Helvetica,sans-Serif" font-size="10.00" fill="#000000">&#45;fechaGeneracion:LocalDate</text>
<text text-anchor="start" x="458.2675" y="-13" font-family="Helvetica,sans-Serif" font-size="10.00" fill="#000000">&#45;revisada:boolean</text>
</g>
<!-- A0&#45;&gt;A13 -->
<g id="edge12" class="edge">
<title>A0&#45;&gt;A13</title>
<path fill="none" stroke="#000000" d="M384.873,-128.0165C395.337,-121.883 405.5209,-115.9137 415.2137,-110.2322"/>
<polygon fill="none" stroke="#000000" points="384.6889,-128.1244 381.5353,-134.6094 374.3362,-134.1926 377.4898,-127.7076 384.6889,-128.1244"/>
<polygon fill="#000000" stroke="#000000" points="423.9712,-105.099 417.6196,-114.0382 419.6576,-107.6275 415.344,-110.1559 415.344,-110.1559 415.344,-110.1559 419.6576,-107.6275 413.0684,-106.2737 423.9712,-105.099 423.9712,-105.099"/>
<text text-anchor="middle" x="412.6076" y="-118.5571" font-family="Helvetica,sans-Serif" font-size="10.00" fill="#000000">*</text>
<text text-anchor="middle" x="385.6998" y="-114.7345" font-family="Helvetica,sans-Serif" font-size="10.00" fill="#000000">1</text>
</g>
<!-- A1 -->
<g id="node2" class="node">
<title>A1</title>
<polygon fill="none" stroke="#000000" points="137,-488 137,-520 238,-520 238,-488 137,-488"/>
<text text-anchor="start" x="170.278" y="-501" font-family="Helvetica,sans-Serif" font-size="10.00" fill="#000000">Usuario</text>
<polygon fill="none" stroke="#000000" points="137,-420 137,-488 238,-488 238,-420 137,-420"/>
<text text-anchor="start" x="149.1625" y="-469" font-family="Helvetica,sans-Serif" font-size="10.00" fill="#000000">&#45;username:String</text>
<text text-anchor="start" x="149.997" y="-457" font-family="Helvetica,sans-Serif" font-size="10.00" fill="#000000">&#45;password:String</text>
<text text-anchor="start" x="165.8355" y="-445" font-family="Helvetica,sans-Serif" font-size="10.00" fill="#000000">&#45;rol:String</text>
<text text-anchor="start" x="146.938" y="-433" font-family="Helvetica,sans-Serif" font-size="10.00" fill="#000000">&#45;idAsociado:String</text>
</g>
<!-- A4&#45;&gt;A3 -->
<g id="edge13" class="edge">
<title>A4&#45;&gt;A3</title>
<path fill="none" stroke="#000000" d="M756.6836,-442.9893C761.3541,-435.3125 765.8563,-427.5823 770,-420 796.5319,-371.4511 788.5278,-351.502 820,-306 824.8038,-299.0548 830.2223,-292.2039 835.9513,-285.5837"/>
<polygon fill="#000000" stroke="#000000" points="842.8009,-277.9263 839.4878,-288.3798 839.4673,-281.6529 836.1338,-285.3796 836.1338,-285.3796 836.1338,-285.3796 839.4673,-281.6529 832.7798,-282.3794 842.8009,-277.9263 842.8009,-277.9263"/>
<text text-anchor="middle" x="837.0159" y="-294.0714" font-family="Helvetica,sans-Serif" font-size="10.00" fill="#000000">1</text>
<text text-anchor="middle" x="758.8453" y="-420.1065" font-family="Helvetica,sans-Serif" font-size="10.00" fill="#000000">*</text>
</g>
<!-- A5 -->
<g id="node6" class="node">
<title>A5</title>
<polygon fill="none" stroke="#000000" points="837,-523 837,-555 980,-555 980,-523 837,-523"/>
<text text-anchor="start" x="879.8805" y="-536" font-family="Helvetica,sans-Serif" font-size="10.00" fill="#000000">Apartamento</text>
<polygon fill="none" stroke="#000000" points="837,-479 837,-523 980,-523 980,-479 837,-479"/>
<text text-anchor="start" x="855.9845" y="-504" font-family="Helvetica,sans-Serif" font-size="10.00" fill="#000000">&#45;tieneAscensor:boolean</text>
<text text-anchor="start" x="846.827" y="-492" font-family="Helvetica,sans-Serif" font-size="10.00" fill="#000000">&#45;valorAdministracion:double</text>
</g>
<!-- A4&#45;&gt;A5 -->
<g id="edge1" class="edge">
<title>A4&#45;&gt;A5</title>
<path fill="none" stroke="#000000" d="M766.7935,-526.9675C789.2018,-525.3858 813.9448,-523.6392 836.376,-522.0558"/>
<polygon fill="none" stroke="#000000" points="766.4074,-523.486 756.6787,-527.6815 766.9004,-530.4686 766.4074,-523.486"/>
</g>
<!-- A6 -->
<g id="node7" class="node">
<title>A6</title>
<polygon fill="none" stroke="#000000" points="852,-429 852,-461 965,-461 965,-429 852,-429"/>
<text text-anchor="start" x="896.8315" y="-442" font-family="Helvetica,sans-Serif" font-size="10.00" fill="#000000">Casa</text>
<polygon fill="none" stroke="#000000" points="852,-397 852,-429 965,-429 965,-397 852,-397"/>
<text text-anchor="start" x="861.82" y="-410" font-family="Helvetica,sans-Serif" font-size="10.00" fill="#000000">&#45;tieneGaraje:boolean</text>
</g>
<!-- A4&#45;&gt;A6 -->
<g id="edge2" class="edge">
<title>A4&#45;&gt;A6</title>
<path fill="none" stroke="#000000" d="M765.8604,-496.5624C783.4938,-487.7912 802.4023,-478.4795 820,-470 830.0213,-465.1712 840.7245,-460.1071 851.0919,-455.25"/>
<polygon fill="none" stroke="#000000" points="764.1585,-493.4999 756.7692,-501.0926 767.2805,-499.7652 764.1585,-493.4999"/>
</g>
<!-- A7 -->
<g id="node8" class="node">
<title>A7</title>
<polygon fill="none" stroke="#000000" points="851,-347 851,-379 965,-379 965,-347 851,-347"/>
<text text-anchor="start" x="892.443" y="-360" font-family="Helvetica,sans-Serif" font-size="10.00" fill="#000000">Oficina</text>
<polygon fill="none" stroke="#000000" points="851,-315 851,-347 965,-347 965,-315 851,-315"/>
<text text-anchor="start" x="860.774" y="-328" font-family="Helvetica,sans-Serif" font-size="10.00" fill="#000000">&#45;numeroCubiculos:int</text>
</g>
<!-- A4&#45;&gt;A7 -->
<g id="edge3" class="edge">
<title>A4&#45;&gt;A7</title>
<path fill="none" stroke="#000000" d="M763.3341,-441.5965C780.4395,-422.3804 799.7465,-403.2995 820,-388 829.2796,-380.9901 839.9499,-374.7805 850.587,-369.449"/>
<polygon fill="none" stroke="#000000" points="760.5911,-439.4163 756.6415,-449.2475 765.8598,-444.0251 760.5911,-439.4163"/>
</g>
<!-- A8 -->
<g id="node9" class="node">
<title>A8</title>
<polygon fill="none" stroke="#000000" points="853,-781 853,-813 963,-813 963,-781 853,-781"/>
<text text-anchor="start" x="873.556" y="-794" font-family="Helvetica,sans-Serif" font-size="10.00" fill="#000000">LocalComercial</text>
<polygon fill="none" stroke="#000000" points="853,-737 853,-781 963,-781 963,-737 853,-737"/>
<text text-anchor="start" x="862.99" y="-762" font-family="Helvetica,sans-Serif" font-size="10.00" fill="#000000">&#45;frenteCalle:boolean</text>
<text text-anchor="start" x="871.328" y="-750" font-family="Helvetica,sans-Serif" font-size="10.00" fill="#000000">&#45;categoria:String</text>
</g>
<!-- A4&#45;&gt;A8 -->
<g id="edge4" class="edge">
<title>A4&#45;&gt;A8</title>
<path fill="none" stroke="#000000" d="M749.6373,-638.8794C768.9134,-670.15 792.7114,-702.694 820,-728 829.6519,-736.9507 841.3289,-744.7293 852.9779,-751.2428"/>
<polygon fill="none" stroke="#000000" points="752.4949,-636.8414 744.3212,-630.1004 746.5071,-640.4673 752.4949,-636.8414"/>
</g>
<!-- A9 -->
<g id="node10" class="node">
<title>A9</title>
<polygon fill="none" stroke="#000000" points="828,-687 828,-719 989,-719 989,-687 828,-687"/>
<text text-anchor="start" x="898.772" y="-700" font-family="Helvetica,sans-Serif" font-size="10.00" fill="#000000">Lote</text>
<polygon fill="none" stroke="#000000" points="828,-655 828,-687 989,-687 989,-655 828,-655"/>
<text text-anchor="start" x="837.653" y="-668" font-family="Helvetica,sans-Serif" font-size="10.00" fill="#000000">&#45;tieneServiciosPublicos:boolean</text>
</g>
<!-- A4&#45;&gt;A9 -->
<g id="edge5" class="edge">
<title>A4&#45;&gt;A9</title>
<path fill="none" stroke="#000000" d="M764.478,-602.0034C781.7706,-617.5734 800.8716,-633.2283 820,-646 824.6257,-649.0885 829.5211,-652.062 834.5399,-654.8989"/>
<polygon fill="none" stroke="#000000" points="766.4098,-599.0275 756.6664,-594.8662 761.6882,-604.1954 766.4098,-599.0275"/>
</g>
<!-- A10 -->
<g id="node11" class="node">
<title>A10</title>
<polygon fill="none" stroke="#000000" points="820,-605 820,-637 996,-637 996,-605 820,-605"/>
<text text-anchor="start" x="890.768" y="-618" font-family="Helvetica,sans-Serif" font-size="10.00" fill="#000000">Bodega</text>
<polygon fill="none" stroke="#000000" points="820,-573 820,-605 996,-605 996,-573 820,-573"/>
<text text-anchor="start" x="829.924" y="-586" font-family="Helvetica,sans-Serif" font-size="10.00" fill="#000000">&#45;capacidadAlmacenamiento:double</text>
</g>
<!-- A4&#45;&gt;A10 -->
<g id="edge6" class="edge">
<title>A4&#45;&gt;A10</title>
<path fill="none" stroke="#000000" d="M766.5847,-556.4197C783.7053,-562.3011 802.1989,-568.6542 819.9892,-574.7657"/>
<polygon fill="none" stroke="#000000" points="767.2734,-552.9556 756.6787,-553.0167 764.9991,-559.5758 767.2734,-552.9556"/>
</g>
<!-- A11&#45;&gt;A2 -->
<g id="edge14" class="edge">
<title>A11&#45;&gt;A2</title>
<path fill="none" stroke="#000000" d="M555.5687,-291.6395C572.8028,-292.4229 592.0455,-293.2975 610.6121,-294.1415"/>
<polygon fill="#000000" stroke="#000000" points="620.8403,-294.6064 610.6463,-298.6476 615.8455,-294.3793 610.8506,-294.1522 610.8506,-294.1522 610.8506,-294.1522 615.8455,-294.3793 611.055,-289.6569 620.8403,-294.6064 620.8403,-294.6064"/>
<text text-anchor="middle" x="602.3491" y="-299.227" font-family="Helvetica,sans-Serif" font-size="10.00" fill="#000000">1</text>
<text text-anchor="middle" x="574.0599" y="-281.0189" font-family="Helvetica,sans-Serif" font-size="10.00" fill="#000000">*</text>
</g>
<!-- A11&#45;&gt;A3 -->
<g id="edge16" class="edge">
<title>A11&#45;&gt;A3</title>
<path fill="none" stroke="#000000" d="M555.6093,-241.6149C575.2033,-228.4012 597.9714,-215.807 621,-209 690.7252,-188.3901 774.1326,-194.8272 833.0148,-204.1865"/>
<polygon fill="#000000" stroke="#000000" points="842.9804,-205.8355 832.3799,-208.6426 838.0475,-205.0192 833.1146,-204.2029 833.1146,-204.2029 833.1146,-204.2029 838.0475,-205.0192 833.8493,-199.7633 842.9804,-205.8355 842.9804,-205.8355"/>
<text text-anchor="middle" x="823.7176" y="-208.2154" font-family="Helvetica,sans-Serif" font-size="10.00" fill="#000000">1</text>
<text text-anchor="middle" x="566.082" y="-221.5761" font-family="Helvetica,sans-Serif" font-size="10.00" fill="#000000">*</text>
</g>
<!-- A11&#45;&gt;A4 -->
<g id="edge15" class="edge">
<title>A11&#45;&gt;A4</title>
<path fill="none" stroke="#000000" d="M555.8611,-343.4936C561.1077,-348.9499 566.2331,-354.5056 571,-360 590.7506,-382.7647 610.5842,-408.532 628.4334,-433.0621"/>
<polygon fill="#000000" stroke="#000000" points="634.4075,-441.3275 624.9024,-435.8589 631.4785,-437.2752 628.5495,-433.2228 628.5495,-433.2228 628.5495,-433.2228 631.4785,-437.2752 632.1966,-430.5868 634.4075,-441.3275 634.4075,-441.3275"/>
<text text-anchor="middle" x="616.939" y="-428.5883" font-family="Helvetica,sans-Serif" font-size="10.00" fill="#000000">1</text>
<text text-anchor="middle" x="574.5023" y="-347.7399" font-family="Helvetica,sans-Serif" font-size="10.00" fill="#000000">*</text>
</g>
<!-- A12&#45;&gt;A2 -->
<g id="edge17" class="edge">
<title>A12&#45;&gt;A2</title>
<path fill="none" stroke="#000000" d="M557.713,-390.5539C574.9792,-378.9559 594.1151,-366.102 612.4954,-353.7556"/>
<polygon fill="#000000" stroke="#000000" points="620.8778,-348.125 615.0859,-357.4366 616.7272,-350.913 612.5767,-353.7011 612.5767,-353.7011 612.5767,-353.7011 616.7272,-350.913 610.0675,-349.9655 620.8778,-348.125 620.8778,-348.125"/>
<text text-anchor="middle" x="610.5441" y="-362.2485" font-family="Helvetica,sans-Serif" font-size="10.00" fill="#000000">1</text>
<text text-anchor="middle" x="568.0466" y="-370.4304" font-family="Helvetica,sans-Serif" font-size="10.00" fill="#000000">*</text>
</g>
<!-- A12&#45;&gt;A3 -->
<g id="edge19" class="edge">
<title>A12&#45;&gt;A3</title>
<path fill="none" stroke="#000000" d="M557.6286,-427.0999C627.0758,-421.605 736.1285,-409.6262 770,-387 805.1793,-363.5002 793.5641,-339.0299 820,-306 824.8805,-299.9021 830.162,-293.7918 835.6303,-287.7971"/>
<polygon fill="#000000" stroke="#000000" points="842.6406,-280.2751 839.1147,-290.6587 839.2317,-283.9328 835.8227,-287.5906 835.8227,-287.5906 835.8227,-287.5906 839.2317,-283.9328 832.5307,-284.5225 842.6406,-280.2751 842.6406,-280.2751"/>
<text text-anchor="middle" x="836.4657" y="-296.298" font-family="Helvetica,sans-Serif" font-size="10.00" fill="#000000">1</text>
<text text-anchor="middle" x="574.9805" y="-414.1545" font-family="Helvetica,sans-Serif" font-size="10.00" fill="#000000">*</text>
</g>
<!-- A12&#45;&gt;A4 -->
<g id="edge18" class="edge">
<title>A12&#45;&gt;A4</title>
<path fill="none" stroke="#000000" d="M557.713,-461.7147C579.0124,-472.5796 603.157,-484.8958 625.2187,-496.1494"/>
<polygon fill="#000000" stroke="#000000" points="634.2059,-500.7338 623.2531,-500.1984 629.7519,-498.4618 625.2979,-496.1898 625.2979,-496.1898 625.2979,-496.1898 629.7519,-498.4618 627.3428,-492.1812 634.2059,-500.7338 634.2059,-500.7338"/>
<text text-anchor="middle" x="614.2185" y="-497.0267" font-family="Helvetica,sans-Serif" font-size="10.00" fill="#000000">1</text>
<text text-anchor="middle" x="577.7005" y="-459.4218" font-family="Helvetica,sans-Serif" font-size="10.00" fill="#000000">*</text>
</g>
<!-- A14 -->
<g id="node15" class="node">
<title>A14</title>
<polygon fill="none" stroke="#000000" points="109,-630 109,-662 266,-662 266,-630 109,-630"/>
<text text-anchor="start" x="154.7155" y="-643" font-family="Helvetica,sans-Serif" font-size="10.00" fill="#000000">CambioEstado</text>
<polygon fill="none" stroke="#000000" points="109,-538 109,-630 266,-630 266,-538 109,-538"/>
<text text-anchor="start" x="153.8875" y="-611" font-family="Helvetica,sans-Serif" font-size="10.00" fill="#000000">&#45;tipoCambio:int</text>
<text text-anchor="start" x="153.602" y="-599" font-family="Helvetica,sans-Serif" font-size="10.00" fill="#000000">&#45;entidad:Object</text>
<text text-anchor="start" x="131.105" y="-587" font-family="Helvetica,sans-Serif" font-size="10.00" fill="#000000">&#45;descripcionAccion:String</text>
<text text-anchor="start" x="118.875" y="-575" font-family="Helvetica,sans-Serif" font-size="10.00" fill="#000000">&#45;disponibilidadAnterior:boolean</text>
<text text-anchor="start" x="138.8805" y="-563" font-family="Helvetica,sans-Serif" font-size="10.00" fill="#000000">&#45;estadoAnterior:String</text>
<text text-anchor="start" x="138.3255" y="-551" font-family="Helvetica,sans-Serif" font-size="10.00" fill="#000000">&#45;precioAnterior:double</text>
</g>
</g>
</svg>
